<svg width="132" height="36" viewBox="0 0 132 36" fill="none" xmlns="http://www.w3.org/2000/svg">
<g clip-path="url(#clip0_3226_28845)">
<path d="M29.2851 29.8528L20.4705 34.9564C18.0663 36.3485 15.1041 36.3485 12.6999 34.9564L3.88529 29.8528C1.48109 28.4606 0 25.8882 0 23.1039V12.897C0 10.1128 1.48109 7.54033 3.88529 6.14821L12.6999 1.04457C15.1041 -0.34754 18.0663 -0.34754 20.4705 1.04457L29.2851 6.14821C31.6893 7.54033 33.1704 10.1128 33.1704 12.897V23.1043C33.1704 25.8882 31.6893 28.4606 29.2851 29.8528Z" fill="#410099"/>
<path d="M13.6192 28.6707L6.1325 17.5404C5.01886 15.8843 5.45436 13.6359 7.10577 12.5183C7.72402 12.1002 8.42549 11.8994 9.11957 11.8994C10.2787 11.8994 11.4168 12.4582 12.114 13.4943L16.6195 20.194L13.6352 24.6316C12.8031 25.8685 12.8392 27.4377 13.6033 28.6141L13.6192 28.6711V28.6707Z" fill="white"/>
<path d="M19.7658 28.3994L19.5908 28.6599C18.4814 30.3098 16.2487 30.745 14.6035 29.6324C12.9591 28.5199 12.5252 26.2801 13.6345 24.631L16.6189 20.1934L19.5993 24.6251C20.3836 25.7907 20.4003 27.2483 19.7658 28.3994Z" fill="#8EFF45"/>
<path d="M34.8896 4.81561C34.8896 5.50933 34.6901 6.20968 34.2748 6.82774L19.766 28.3993C20.4002 27.2485 20.3839 25.7905 19.5996 24.6254L16.6191 20.1936L28.3186 2.79919C29.4279 1.14932 31.6606 0.714139 33.3058 1.82666C34.3347 2.52272 34.8896 3.65903 34.8896 4.81561Z" fill="#38D430"/>
<path d="M46.8963 16.4838C44.8363 15.9542 44.753 15.6992 44.753 15.3927C44.753 15.0831 45.2127 14.851 45.8025 14.851C46.3368 14.851 47.2727 15.0398 47.8486 15.4009C48.1231 15.5728 48.6236 15.6898 48.9284 15.6898C49.8336 15.6898 50.3916 15.0757 50.3916 14.1764C50.3916 13.5958 50.0195 13.0959 49.6482 12.874C48.5396 12.1698 47.2327 11.7412 45.829 11.7412C43.2525 11.7412 41.4409 13.3794 41.4409 15.5853V15.6173C41.4409 17.7838 43.2875 18.7825 45.5047 19.3503C47.4053 19.8389 47.4166 20.2292 47.4166 20.4671V20.4991C47.4166 21.0461 46.5402 21.1772 46.2711 21.1772C45.3709 21.1772 44.526 20.8559 43.6896 20.2386H43.681C43.3855 20.0311 43.0682 19.8564 42.712 19.8564C41.5132 19.8564 41.0972 20.5607 41.0972 21.4595C41.0972 21.9793 41.3487 22.4808 41.7528 22.767C43.0355 23.6904 44.6298 24.1993 46.2291 24.1993C49.0035 24.1993 50.8007 22.6527 50.8007 20.2592V20.2273C50.8007 18.0724 48.9191 17.0125 46.8963 16.4838Z" fill="#410099"/>
<path d="M61.8813 20.8881H57.2802V19.5163H61.0834C61.947 19.5163 62.6501 18.7933 62.6501 17.9358C62.6501 17.0783 61.9474 16.3394 61.0834 16.3394H57.2802V15.0397H61.8016C62.6652 15.0397 63.3682 14.3167 63.3682 13.4592C63.3682 12.6017 62.6656 11.8628 61.8016 11.8628H55.6089C54.659 11.8628 53.8965 12.6474 53.8965 13.6V22.3391C53.8965 23.2918 54.659 24.0647 55.6089 24.0647H61.8813C62.7449 24.0647 63.448 23.3417 63.448 22.4842C63.448 21.6181 62.7449 20.8881 61.8813 20.8881Z" fill="#410099"/>
<path d="M72.0957 11.8628H68.2174C67.2675 11.8628 66.4956 12.6474 66.4956 13.6V22.4355C66.4956 23.3881 67.2375 24.1345 68.1874 24.1345C69.1374 24.1345 69.8793 23.3881 69.8793 22.4355V20.4549H71.1839L73.4372 23.3163C73.8676 23.8677 74.384 24.1306 75.0167 24.1306C75.9156 24.1306 76.6436 23.4134 76.6436 22.5298C76.6436 21.9769 76.3931 21.6181 76.1408 21.2976L74.7814 19.6668C76.0704 18.9326 76.719 17.7105 76.719 16.0976V16.0657C76.719 14.9683 76.3686 13.8734 75.6528 13.1559C74.8222 12.3222 73.6102 11.8628 72.0957 11.8628ZM69.8793 15.1118H71.888C72.8609 15.1118 73.4792 15.1859 73.4792 16.1947C73.4792 16.9052 72.8372 17.3498 71.9363 17.3498H69.8797V15.1118H69.8793Z" fill="#410099"/>
<path d="M88.7746 11.8047C87.9573 11.8047 87.3756 12.3459 87.1594 12.8876L84.7684 19.092L82.4093 12.9675C82.1282 12.2395 81.5006 11.8051 80.7303 11.8051C79.7804 11.8051 79.0361 12.5444 79.0361 13.4881C79.0361 13.7876 79.1267 14.0461 79.2158 14.2602L82.8394 22.9502C83.1808 23.764 83.8266 24.2097 84.6568 24.2097H84.8162C85.6464 24.2097 86.2923 23.764 86.6341 22.9494L90.2872 14.1841C90.3389 14.0668 90.4529 13.772 90.4529 13.4561C90.4529 12.5292 89.7156 11.8047 88.7746 11.8047Z" fill="#410099"/>
<path d="M95.0062 11.8047C94.0562 11.8047 93.3501 12.551 93.3501 13.5037V22.4351C93.3501 23.3877 94.0558 24.1341 95.0062 24.1341C95.9565 24.1341 96.6618 23.3877 96.6618 22.4351V13.5037C96.6622 12.551 95.9561 11.8047 95.0062 11.8047Z" fill="#410099"/>
<path d="M107.973 11.8628H101.716C100.766 11.8628 100.046 12.6474 100.046 13.6V22.4355C100.046 23.3881 100.788 24.1345 101.738 24.1345C102.688 24.1345 103.43 23.3881 103.43 22.4355V19.7327H107.255C108.127 19.7327 108.837 18.9832 108.837 18.1082C108.837 17.2332 108.127 16.4837 107.255 16.4837H103.43V15.1118H107.973C108.845 15.1118 109.555 14.3624 109.555 13.4873C109.555 12.6123 108.845 11.8628 107.973 11.8628Z" fill="#410099"/>
<path d="M120.98 11.7886C120.354 11.7886 119.842 12.0962 119.418 12.7237L117.04 16.1291L114.71 12.7615C114.432 12.3509 113.965 11.8046 113.113 11.8046C112.179 11.8046 111.42 12.5451 111.42 13.4556C111.42 13.8658 111.54 14.255 111.801 14.6126L115.309 19.4031V22.4349C115.309 23.3876 116.051 24.1339 117.001 24.1339C117.951 24.1339 118.693 23.3876 118.693 22.4349V19.3559L122.225 14.5911C122.494 14.2129 122.641 13.8311 122.641 13.4556C122.641 12.4897 121.943 11.7886 120.98 11.7886Z" fill="#410099"/>
<path d="M123.457 9.51808H124.823V13.1138H125.792V9.51808H127.158V8.73779H123.457V9.51808Z" fill="black"/>
<path d="M131.247 8.73779L129.846 11.9588L128.439 8.73779H127.68V13.1138H128.519V10.7558L129.531 13.1138H130.15L131.15 10.7347L131.154 13.1138H132V8.73779H131.247Z" fill="black"/>
</g>
<defs>
<clipPath id="clip0_3226_28845">
<rect width="132" height="36" fill="white"/>
</clipPath>
</defs>
</svg>
